<svg version="1.2" xmlns="http://www.w3.org/2000/svg" viewBox="0 0 32 32" width="32" height="32">
	<title>Landing</title>
	<defs>
		<clipPath clipPathUnits="userSpaceOnUse" id="cp1">
			<path d="m-396-4426h1920v5365h-1920z"/>
		</clipPath>
	</defs>
	<style>
		.s0 { fill: #f8f8f8 } 
	</style>
	<g id="Landing" clip-path="url(#cp1)">
		<g id="Contact">
			<g id="Context Box">
				<g id="Icon">
					<path id="-e-telephone" class="s0" d="m31.1 24.7c-0.1-0.4-0.4-0.8-0.8-1l-6.2-3.7q-0.4-0.2-0.9-0.2c-0.5 0-1 0.2-1.3 0.5l-1.9 1.9c0 0-0.3 0.1-0.4 0.1 0 0-2.1-0.1-6-4-3.9-3.9-4-6-4-6 0-0.1 0.1-0.3 0.2-0.4l1.5-1.6c0.6-0.5 0.7-1.5 0.4-2.2l-3.4-6.4c-0.3-0.6-0.8-0.9-1.3-0.9-0.4 0-0.8 0.2-1.1 0.5l-4.2 4.2c-0.4 0.4-0.8 1.1-0.9 1.7 0 0.3-0.7 6.8 8.2 15.7 7.6 7.6 13.5 8.2 15.1 8.2q0.3 0 0.6 0c0.6-0.1 1.3-0.5 1.7-0.9l4.3-4.2c0.3-0.4 0.5-0.8 0.4-1.3z"/>
				</g>
			</g>
		</g>
	</g>
</svg>